<svg width="228" height="237" viewBox="0 0 228 237" fill="none" xmlns="http://www.w3.org/2000/svg">
<path d="M87.3353 26.4637L75.6985 38.1005C91.4315 53.2674 103.5 73.5 103.5 108C103.5 129.5 99.5616 142.341 91 149C82.3473 155.73 68.6108 156.914 56.8998 148.553C38.9311 134.061 29 112.313 29 88C29 58.7272 37.3474 33.1729 66.0933 19.5244C47.8165 28.0004 32.1627 41.1761 20.6836 57.5C7.6514 76.0325 0 98.6227 0 123C0 185.96 51.0395 237 114 237C176.96 237 228 185.96 228 123C228 77.1507 200.933 37.6232 161.907 19.5244C190.653 33.1729 196.5 58.7272 196.5 88C196.5 113.66 186.303 136.463 167.118 150.894C156.335 156.601 144.535 155.017 136.799 149C128.237 142.341 124.299 129.5 124.299 108C124.299 73.5 136.367 53.2674 152.101 38.1005L140.464 26.4637C132.389 32.589 128.705 37.3164 122.299 46C123.992 30.3733 126.565 25.5211 132.5 18.5L114 0L95.299 18.5C101.234 25.5211 103.807 30.3733 105.5 46C99.0938 37.3164 95.4101 32.589 87.3353 26.4637Z" fill="#F33737"/>
</svg>
